<svg xmlns="http://www.w3.org/2000/svg" xmlns:xlink="http://www.w3.org/1999/xlink" width="2000" zoomAndPan="magnify" viewBox="0 0 1500 1499.999933" height="2000" preserveAspectRatio="xMidYMid meet" version="1.0"><defs><clipPath id="8aa23a3bcd"><path d="M 100.3125 0 L 1400 0 L 1400 1500 L 100.3125 1500 Z M 100.3125 0 " clip-rule="nonzero"/></clipPath></defs><path fill="#004aad" d="M 679.8125 1124.773438 L 750 1165.265625 C 966.558594 1040.191406 1182.8125 915.417969 1399.371094 790.34375 L 1399.371094 641.273438 C 1159.417969 779.542969 919.464844 917.816406 679.8125 1056.386719 Z M 679.8125 1124.773438 " fill-opacity="1" fill-rule="evenodd"/><path fill="#004aad" d="M 390.070312 555.1875 L 390.070312 704.257812 C 556.839844 607.679688 723.605469 511.699219 890.070312 415.417969 L 760.796875 341.03125 C 637.523438 412.417969 513.648438 483.804688 390.070312 555.1875 Z M 390.070312 555.1875 " fill-opacity="1" fill-rule="evenodd"/><g clip-path="url(#8aa23a3bcd)"><path fill="#004aad" d="M 750 0 C 533.441406 125.074219 317.1875 249.851562 100.628906 374.925781 C 100.628906 624.773438 100.628906 874.324219 100.628906 1124.773438 L 229.902344 1199.160156 C 229.902344 949.308594 229.902344 699.761719 229.902344 449.910156 C 402.96875 349.429688 576.632812 249.25 750 149.371094 C 903.570312 238.152344 1057.4375 326.933594 1210.707031 415.417969 L 390.070312 889.320312 C 390.070312 1023.996094 390.070312 1157.769531 390.070312 1291.839844 C 510.046875 1361.425781 630.023438 1430.414062 749.699219 1500 L 1399.070312 1125.074219 L 1399.070312 976.003906 L 1269.796875 1049.789062 L 749.699219 1349.730469 L 519.347656 1216.855469 C 519.347656 1140.371094 519.347656 1157.167969 519.347656 963.707031 L 1399.070312 455.910156 L 1399.070312 374.925781 C 1182.8125 249.851562 966.257812 125.074219 750 0 Z M 750 0 " fill-opacity="1" fill-rule="evenodd"/></g></svg>